<svg xmlns="http://www.w3.org/2000/svg" width="32" height="32" id="thermometer">
  <path fill="#2ecc71" fill-rule="evenodd" d="M3.014 13.116c1.136 1.942 3.596 2.599 5.495 1.467 1.9-1.132 2.517-3.624 1.38-5.566-1.135-1.941-6.395-3.005-6.395-3.005s-1.616 5.162-.48 7.104z"></path>
  <path fill="#464c63" fill-rule="evenodd" d="M3.505 1025.866a.5.5 0 0 0-.476.344s-.443 1.338-.74 2.935c-.298 1.598-.531 3.446.18 4.698a4.576 4.576 0 0 0 2.777 2.166 4.527 4.527 0 0 0 1.754.123.5.5 0 1 0-.125-.992 3.51 3.51 0 0 1-1.366-.096 3.568 3.568 0 0 1-2.172-1.696c-.415-.73-.348-2.498-.064-4.02.237-1.27.484-2.013.588-2.343.336.075 1.087.227 2.283.652 1.437.51 2.97 1.33 3.385 2.06a3.69 3.69 0 0 1 .357 2.772c-.119.451-.321.88-.601 1.256a.5.5 0 1 0 .802.596 4.692 4.692 0 0 0 .31-5.115c-.71-1.252-2.407-1.975-3.919-2.512-1.512-.538-2.873-.819-2.873-.819a.5.5 0 0 0-.1-.01z" color="#000" font-family="sans-serif" overflow="visible" style="line-height:normal;text-indent:0;text-align:start;text-decoration-line:none;text-decoration-style:solid;text-decoration-color:#000;text-transform:none;isolation:auto;mix-blend-mode:normal" transform="translate(0 -1020.362)"></path>
  <path fill="#464c63" d="M15.997 1024.362a3.008 3.008 0 0 1 3.002 3l.004 14.01a4.992 4.992 0 0 1 1.78 5.445 5.003 5.003 0 0 1-9.573-.002c-.61-2.005.145-4.252 1.788-5.443l-.002-14.01a3.016 3.016 0 0 1 3.001-3z" color="#000" font-family="sans-serif" overflow="visible" style="line-height:normal;text-indent:0;text-align:start;text-decoration-line:none;text-decoration-style:solid;text-decoration-color:#000;text-transform:none;isolation:auto;mix-blend-mode:normal" transform="translate(0 -1020.362)"></path>
  <path fill="#d3d4d6" d="M15.997 1025.362c-1.11 0-2 .89-2 2l-.003 14.26a.5.5 0 0 1-.222.416 4 4 0 0 0 2.226 7.324 3.997 3.997 0 0 0 2.225-7.322.5.5 0 0 1-.22-.416l-.005-14.26c-.025-1.275-1.008-1.97-2-2.002z" color="#000" font-family="sans-serif" overflow="visible" style="line-height:normal;text-indent:0;text-align:start;text-decoration-line:none;text-decoration-style:solid;text-decoration-color:#000;text-transform:none;isolation:auto;mix-blend-mode:normal" transform="translate(0 -1020.362)"></path>
  <path fill="#464c63" d="M16 1043.112a2.258 2.258 0 0 1 2.25 2.25 2.258 2.258 0 0 1-2.25 2.25 2.258 2.258 0 0 1-2.25-2.25 2.258 2.258 0 0 1 2.25-2.25z" color="#000" font-family="sans-serif" overflow="visible" style="line-height:normal;text-indent:0;text-align:start;text-decoration-line:none;text-decoration-style:solid;text-decoration-color:#000;text-transform:none;isolation:auto;mix-blend-mode:normal" transform="translate(0 -1020.362)"></path>
  <path fill="#de413a" d="M16 1044.112c-.696 0-1.25.554-1.25 1.25s.554 1.25 1.25 1.25 1.25-.554 1.25-1.25-.554-1.25-1.25-1.25z" color="#000" font-family="sans-serif" overflow="visible" style="line-height:normal;text-indent:0;text-align:start;text-decoration-line:none;text-decoration-style:solid;text-decoration-color:#000;text-transform:none;isolation:auto;mix-blend-mode:normal" transform="translate(0 -1020.362)"></path>
  <path fill="#464c63" fill-rule="evenodd" d="M15.5 1036.361v7.25h1v-7.25z" color="#000" font-family="sans-serif" overflow="visible" style="line-height:normal;text-indent:0;text-align:start;text-decoration-line:none;text-decoration-style:solid;text-decoration-color:#000;text-transform:none;isolation:auto;mix-blend-mode:normal" transform="translate(0 -1020.362)"></path>
  <path fill="#464c63" d="M27.031 1026.363a.5.5 0 0 1 .342.164s.39.436.783.983c.197.274.397.575.555.883.158.308.289.61.289.969 0 1.099-.901 2-2 2s-2-.901-2-2c0-.358.13-.661.289-.969a7.03 7.03 0 0 1 .555-.883c.393-.547.785-.983.785-.983a.5.5 0 0 1 .402-.164z" color="#000" font-family="sans-serif" overflow="visible" style="line-height:normal;text-indent:0;text-align:start;text-decoration-line:none;text-decoration-style:solid;text-decoration-color:#000;text-transform:none;isolation:auto;mix-blend-mode:normal" transform="translate(0 -1020.362)"></path>
  <path fill="#5285c4" d="M27 1027.662c-.132.161-.173.194-.344.432a6.345 6.345 0 0 0-.476.758c-.123.24-.18.454-.18.51 0 .558.442 1 1 1s1-.442 1-1c0-.056-.057-.27-.18-.51a6.345 6.345 0 0 0-.476-.758c-.172-.238-.212-.27-.344-.432z" color="#000" font-family="sans-serif" overflow="visible" style="line-height:normal;text-indent:0;text-align:start;text-decoration-line:none;text-decoration-style:solid;text-decoration-color:#000;text-transform:none;isolation:auto;mix-blend-mode:normal" transform="translate(0 -1020.362)"></path>
  <path fill="#464c63" d="M23.031 1022.363a.5.5 0 0 1 .342.164s.39.436.783.983c.197.274.397.575.555.883.158.307.289.61.289.969 0 1.099-.901 2-2 2s-2-.901-2-2c0-.358.13-.661.289-.969a7.03 7.03 0 0 1 .555-.883c.393-.547.785-.983.785-.983a.5.5 0 0 1 .402-.164z" color="#000" font-family="sans-serif" overflow="visible" style="line-height:normal;text-indent:0;text-align:start;text-decoration-line:none;text-decoration-style:solid;text-decoration-color:#000;text-transform:none;isolation:auto;mix-blend-mode:normal" transform="translate(0 -1020.362)"></path>
  <path fill="#5285c4" d="M23 1023.662c-.132.161-.173.194-.344.432a6.345 6.345 0 0 0-.476.758c-.123.239-.18.454-.18.51 0 .558.442 1 1 1s1-.442 1-1c0-.056-.057-.271-.18-.51a6.345 6.345 0 0 0-.476-.758c-.172-.238-.212-.271-.344-.432z" color="#000" font-family="sans-serif" overflow="visible" style="line-height:normal;text-indent:0;text-align:start;text-decoration-line:none;text-decoration-style:solid;text-decoration-color:#000;text-transform:none;isolation:auto;mix-blend-mode:normal" transform="translate(0 -1020.362)"></path>
  <path fill="#464c63" fill-rule="evenodd" d="M4.76 1028.105a.5.5 0 0 0-.417.754l4.965 8.74a.5.5 0 0 0 .871-.494l-4.965-8.74a.5.5 0 0 0-.455-.26z" color="#000" font-family="sans-serif" overflow="visible" style="line-height:normal;text-indent:0;text-align:start;text-decoration-line:none;text-decoration-style:solid;text-decoration-color:#000;text-transform:none;isolation:auto;mix-blend-mode:normal" transform="translate(0 -1020.362)"></path>
  <path fill="#464c63" fill-rule="evenodd" d="M8.722 1030.152a.5.5 0 0 0-.478.351l-.965 2.953a.5.5 0 1 0 .95.311l.966-2.953a.5.5 0 0 0-.473-.662zM3.863 1031.306a.5.5 0 0 0-.086.986l3.06.74a.5.5 0 1 0 .235-.972l-3.06-.738a.5.5 0 0 0-.15-.016zM6.849 1028.671a.5.5 0 0 0-.484.344l-.582 1.684a.5.5 0 1 0 .943.326l.584-1.684a.5.5 0 0 0-.461-.67z" color="#000" font-family="sans-serif" overflow="visible" style="line-height:normal;text-indent:0;text-align:start;text-decoration-line:none;text-decoration-style:solid;text-decoration-color:#000;text-transform:none;isolation:auto;mix-blend-mode:normal" transform="translate(0 -1020.362)"></path>
</svg>
