<svg xmlns="http://www.w3.org/2000/svg" viewBox="0 0 48 48" id="wind">
  <path d="M7.205 20.384a.5.5 0 0 1-.039-.706c2.912-3.253 7.457-4.072 12.155-2.192 4.329 1.732 6.042 1.067 6.953.417a4.572 4.572 0 0 0 1.914-2.734 2.189 2.189 0 0 0-.549-1.741 1.5 1.5 0 0 0-1.514-.6 1.714 1.714 0 0 0-1.282 1.072.8.8 0 0 0 .229.848.915.915 0 0 0 .758.285.511.511 0 0 0 .389-.264.5.5 0 0 1 .882.473 1.511 1.511 0 0 1-1.125.78 1.912 1.912 0 0 1-1.611-.567 1.806 1.806 0 0 1-.479-1.845 2.73 2.73 0 0 1 2.044-1.757 2.51 2.51 0 0 1 2.482.943 3.179 3.179 0 0 1 .767 2.506 5.507 5.507 0 0 1-2.324 3.417c-1.1.787-3.12 1.612-7.905-.3-4.293-1.718-8.419-1-11.039 1.93a.5.5 0 0 1-.706.039Zm26.431-4.226a4.066 4.066 0 0 1-1.339 3.05 8.672 8.672 0 0 1-6.186 1.981 28.418 28.418 0 0 1-2.9-.351c-2.557-.4-4.973-.779-7.372.817a.5.5 0 0 0 .277.917.494.494 0 0 0 .277-.084c2.075-1.379 4.2-1.046 6.664-.662a29.2 29.2 0 0 0 3 .362 9.566 9.566 0 0 0 6.929-2.256 5.1 5.1 0 0 0 1.649-3.777c-.007-2.3-1.219-3.8-2.287-5.127a5.377 5.377 0 0 1-1.5-2.7.506.506 0 0 0-.537-.461.5.5 0 0 0-.46.537 6.141 6.141 0 0 0 1.718 3.253c1.014 1.253 2.061 2.549 2.067 4.501ZM16.117 33.1a.5.5 0 1 0 .5.5.5.5 0 0 0-.5-.5Zm24.369-8.473a.5.5 0 1 0 .5-.5.5.5 0 0 0-.5.505Zm-4.257-.563q-.868-.433-1.684-.8a.5.5 0 1 0-.408.913q.8.356 1.644.779a7.831 7.831 0 0 0 2.964.9h.03a.5.5 0 0 0 .029-1 6.87 6.87 0 0 1-2.575-.787Zm7.729 1.9a.5.5 0 0 0-.7.039c-1.966 2.2-4.937 2.463-8.366.749-7.8-3.9-11.709-2.91-15.49-1.955a37.212 37.212 0 0 1-14.492.378.5.5 0 0 0-.2.98 38.341 38.341 0 0 0 14.933-.388c3.768-.954 7.328-1.855 14.8 1.879a10.482 10.482 0 0 0 4.645 1.236A6.387 6.387 0 0 0 44 26.671a.5.5 0 0 0-.042-.706ZM13.879 33.7a17.667 17.667 0 0 1-7.922.769.5.5 0 1 0-.185.983 12.567 12.567 0 0 0 2.326.209 22.363 22.363 0 0 0 6.055-1 .5.5 0 0 0-.274-.962Zm3.157-4.1c-.559.157-1.169.35-1.816.555-3.371 1.066-7.566 2.395-10.6.689a.5.5 0 1 0-.49.872c3.412 1.918 8.024.458 11.392-.608.636-.2 1.236-.391 1.784-.545 4.548-1.281 8.126-.293 9.122 2.513a4.058 4.058 0 0 1-.339 3.752 2.484 2.484 0 0 1-2.134 1.045 1.691 1.691 0 0 1-1.514-.641 2.028 2.028 0 0 1 .128-1.709.977.977 0 0 1 .88-.412c.232.059.267.447.267.673a.5.5 0 0 0 1 0c0-1.245-.711-1.563-1.018-1.642a1.95 1.95 0 0 0-2 .9 2.982 2.982 0 0 0-.123 2.684 2.59 2.59 0 0 0 2.347 1.148h.139a3.486 3.486 0 0 0 2.838-1.454 5.045 5.045 0 0 0 .477-4.679c-1.191-3.348-5.248-4.579-10.34-3.147ZM13.09 14.129v-.02a5.938 5.938 0 0 1 3.857-4.437A5.654 5.654 0 0 0 20.5 6.981a.5.5 0 0 1 .923.037c.044.12 1.068 2.961.027 5.1a3.764 3.764 0 0 1-2.337 1.958 8.106 8.106 0 0 1-2.848.222 4.086 4.086 0 0 0-2.395.313c-.007.006-.018 0-.026.008a.451.451 0 0 1-.505.015c-.009 0-.02 0-.028-.008s-.019-.027-.032-.037a.514.514 0 0 1-.079-.06.461.461 0 0 1-.054-.1.467.467 0 0 1-.027-.049.484.484 0 0 1-.029-.251Zm1.653-1.487a6.7 6.7 0 0 1 2.457-1.178 3.314 3.314 0 0 0 2.218-1.332.5.5 0 0 1 .673-.208.5.5 0 0 1 .216.665 4.215 4.215 0 0 1-2.874 1.848 5.458 5.458 0 0 0-1.86.842c.24 0 .481.008.729.018a7.3 7.3 0 0 0 2.5-.175 2.767 2.767 0 0 0 1.744-1.441 5.424 5.424 0 0 0 .206-3.3 7.107 7.107 0 0 1-3.53 2.252 4.3 4.3 0 0 0-2.479 2.009Zm20.324-5.416a.4.4 0 0 1 .015-.045v-.029c0-.01.016-.02.021-.033a.474.474 0 0 1 .114-.178.373.373 0 0 1 .032-.036.489.489 0 0 1 .221-.1c.011 0 .018-.012.029-.013.146-.018 3.6-.441 5.609 1.325a4.211 4.211 0 0 1 1.378 3.317 3.451 3.451 0 0 1-1.229 2.546 6.866 6.866 0 0 1-4.285 1.676c-.093 0-.182 0-.269-.011h-.044c-.011 0-.02-.01-.032-.012a.485.485 0 0 1-.169-.058.391.391 0 0 1-.044-.026.48.48 0 0 1-.147-.16l-.006-.007c0-.008 0-.018-.006-.026a.479.479 0 0 1-.045-.12.523.523 0 0 1 0-.056.4.4 0 0 1 0-.077.473.473 0 0 1 .039-.153c.007-.015 0-.031.012-.045.1-.18 2.391-4.459-1.017-7.228-.009-.008-.011-.021-.02-.029a.49.49 0 0 1-.129-.191.179.179 0 0 1-.012-.024.478.478 0 0 1-.016-.207Zm2.533 7.082a3.443 3.443 0 0 0 1.808-3.2c-.008-1.2-.234-2.4-2.4-3.022a6.767 6.767 0 0 1 .592 6.222Zm2.854-5.437a3.837 3.837 0 0 0-1.126-.664A3.814 3.814 0 0 1 40.4 11.1a4.579 4.579 0 0 1-.916 2.873 5 5 0 0 0 1.093-.731 2.448 2.448 0 0 0 .906-1.809 3.209 3.209 0 0 0-1.034-2.562Zm-5.663 31.721a.5.5 0 0 1-.451.717.479.479 0 0 1-.106-.012c-.153-.033-3.755-.853-4.276-4.108a5.183 5.183 0 0 1 .672-3.73 3.05 3.05 0 0 0 .487-2.208v-.043a.481.481 0 0 1 .015-.169.471.471 0 0 1 .019-.064.5.5 0 0 1 .12-.173c.005 0 .006-.011.011-.015a.485.485 0 0 1 .205-.1.478.478 0 0 1 .065-.007.507.507 0 0 1 .169.012h.042c.014 0 .036.019.056.026l.018.008c2.371.852 3.534 3.4 2.762 6.1a5.786 5.786 0 0 0 .192 3.766Zm-1.847-7.938a6.474 6.474 0 0 1 .122 2.757l-.022.153a6 6 0 0 0 .081 2.259.5.5 0 0 1-.36.609.534.534 0 0 1-.125.015.5.5 0 0 1-.484-.375 6.976 6.976 0 0 1-.1-2.634l.024-.171a5.437 5.437 0 0 0-.1-2.365 6.841 6.841 0 0 1-.462 1.024 4.235 4.235 0 0 0-.569 3.1 4.112 4.112 0 0 0 2.611 2.979 6.89 6.89 0 0 1 .089-3.453 4.265 4.265 0 0 0-.705-3.898Z"></path>
</svg>
